<?xml version="1.0" encoding="utf-8"?>
<!-- Generator: Adobe Illustrator 27.0.0, SVG Export Plug-In . SVG Version: 6.00 Build 0)  -->
<svg version="1.1" id="Layer_1" xmlns="http://www.w3.org/2000/svg" xmlns:xlink="http://www.w3.org/1999/xlink" x="0px" y="0px"
	 viewBox="0 0 291.4 489.6" style="enable-background:new 0 0 291.4 489.6;" xml:space="preserve">
<style type="text/css">
	.st0{fill-rule:evenodd;clip-rule:evenodd;fill:#696CFF;}
	.st1{filter:url(#Adobe_OpacityMaskFilter);}
	.st2{fill-rule:evenodd;clip-rule:evenodd;fill:#FFFFFF;}
	.st3{mask:url(#mask-2_00000087412838653923122090000015833344887170843552_);}
	.st4{fill-rule:evenodd;clip-rule:evenodd;fill:#FFFFFF;fill-opacity:0.2;}
	.st5{filter:url(#Adobe_OpacityMaskFilter_00000098187552682566512280000015898016802668439454_);}
	.st6{mask:url(#mask-2_00000087383861126941478640000015705600200203982772_);}
</style>
<g id="g-app-brand">
	<g id="Brand-Logo" transform="translate(-27.000000, -15.000000)">
		<g id="Icon" transform="translate(27.000000, 15.000000)">
			<g id="Mask" transform="translate(0.000000, 8.000000)">
				<g>
					<path id="path-1_00000046302692601728344800000002098112960366369214_" class="st0" d="M173.2,45.6L46.7,131.9
						c-34.5,27.4-46,61.3-34.6,101.7c1.6,5.3,6.5,24.2,31.2,41.8c8.4,6,26.8,14.1,55.1,24.2l-0.6,0.4l-60.4,40.1
						c-26.7,21.3-31,48.2-13,80.7c15.5,20,44.4,25.4,67.3,16.6c15.3-5.9,53.1-30.9,113.5-75.1c19.7-22.8,27.8-47.7,24.2-74.7
						c-5.4-32.9-27.2-56.7-65.2-71.4l-25.9-11l93.8-66.8L173.2,45.6z"/>
				</g>
				<defs>
					<filter id="Adobe_OpacityMaskFilter" filterUnits="userSpaceOnUse" x="61.3" y="45.6" width="170.7" height="171.4">
						<feColorMatrix  type="matrix" values="1 0 0 0 0  0 1 0 0 0  0 0 1 0 0  0 0 0 1 0"/>
					</filter>
				</defs>
				
					<mask maskUnits="userSpaceOnUse" x="61.3" y="45.6" width="170.7" height="171.4" id="mask-2_00000087412838653923122090000015833344887170843552_">
					<g class="st1">
						<path id="path-1_00000121999914125923328930000000036518409267928756_" class="st2" d="M173.2,45.6L46.7,131.9
							c-34.5,27.4-46,61.3-34.6,101.7c1.6,5.3,6.5,24.2,31.2,41.8c8.4,6,26.8,14.1,55.1,24.2l-0.6,0.4l-60.4,40.1
							c-26.7,21.3-31,48.2-13,80.7c15.5,20,44.4,25.4,67.3,16.6c15.3-5.9,53.1-30.9,113.5-75.1c19.7-22.8,27.8-47.7,24.2-74.7
							c-5.4-32.9-27.2-56.7-65.2-71.4l-25.9-11l93.8-66.8L173.2,45.6z"/>
					</g>
				</mask>
				<g id="Path-3" class="st3">
					<g>
						<path id="path-3" class="st0" d="M72,114.4c-17.3,26.9-13.5,49.5,11.3,67.8c26.9,12.2,45,20,54.2,23.6l56.6,11.2l37.9-78.5
							c-37.5-59.3-57.1-90.2-58.8-92.9C170.6,47.5,136.9,70.4,72,114.4z"/>
					</g>
					<g>
						<path id="path-3_00000044143547802497540900000005915502014629023934_" class="st4" d="M72,114.4
							c-17.3,26.9-13.5,49.5,11.3,67.8c26.9,12.2,45,20,54.2,23.6l56.6,11.2l37.9-78.5c-37.5-59.3-57.1-90.2-58.8-92.9
							C170.6,47.5,136.9,70.4,72,114.4z"/>
					</g>
				</g>
				<defs>
					
						<filter id="Adobe_OpacityMaskFilter_00000009568066630778587560000008611655544748052146_" filterUnits="userSpaceOnUse" x="0.2" y="299.7" width="174.4" height="155.5">
						<feColorMatrix  type="matrix" values="1 0 0 0 0  0 1 0 0 0  0 0 1 0 0  0 0 0 1 0"/>
					</filter>
				</defs>
				
					<mask maskUnits="userSpaceOnUse" x="0.2" y="299.7" width="174.4" height="155.5" id="mask-2_00000087383861126941478640000015705600200203982772_">
					<g style="filter:url(#Adobe_OpacityMaskFilter_00000009568066630778587560000008611655544748052146_);">
						<path id="path-1_00000038373017909816638670000014979155146202088609_" class="st2" d="M173.2,45.6L46.7,131.9
							c-34.5,27.4-46,61.3-34.6,101.7c1.6,5.3,6.5,24.2,31.2,41.8c8.4,6,26.8,14.1,55.1,24.2l-0.6,0.4l-60.4,40.1
							c-26.7,21.3-31,48.2-13,80.7c15.5,20,44.4,25.4,67.3,16.6c15.3-5.9,53.1-30.9,113.5-75.1c19.7-22.8,27.8-47.7,24.2-74.7
							c-5.4-32.9-27.2-56.7-65.2-71.4l-25.9-11l93.8-66.8L173.2,45.6z"/>
					</g>
				</mask>
				<g id="Path-4" class="st6">
					<g>
						<path id="path-4" class="st0" d="M96.6,299.7l58.7,25.4c22.5,17.6,25.2,38.6,8.3,63.2s-32.9,40-47.8,46.2
							c-40.2,13.8-60.2,20.6-60.2,20.6s-16.8-11.5-50.3-34.6c-6.8-40.7-6.8-62.1,0-64.3c10.2-3.3,33.8-37.2,40.2-40.8
							C49.8,313.2,66.8,307.9,96.6,299.7z"/>
					</g>
					<g>
						<path id="path-4_00000062914634105435299380000013351347420109604521_" class="st4" d="M96.6,299.7l58.7,25.4
							c22.5,17.6,25.2,38.6,8.3,63.2s-32.9,40-47.8,46.2c-40.2,13.8-60.2,20.6-60.2,20.6s-16.8-11.5-50.3-34.6
							c-6.8-40.7-6.8-62.1,0-64.3c10.2-3.3,33.8-37.2,40.2-40.8C49.8,313.2,66.8,307.9,96.6,299.7z"/>
					</g>
				</g>
			</g>
			<g id="Triangle" transform="translate(19.000000, 11.000000) rotate(-300.000000) translate(-19.000000, -11.000000) ">
				<g>
					<path id="path-5" class="st0" d="M212.1-187.2L273-106c8.1,10.8,5.9,26-4.9,34.1c-4.2,3.2-9.3,4.9-14.6,4.9l-121.8,0
						c-13.4,0-24.4-10.9-24.4-24.4c0-5.3,1.7-10.4,4.9-14.6l60.9-81.2c8.1-10.8,23.3-12.9,34.1-4.9
						C209.1-190.7,210.7-189,212.1-187.2z"/>
				</g>
				<g>
					<path id="path-5_00000021838465515753798350000017523213973317748914_" class="st4" d="M212.1-187.2L273-106
						c8.1,10.8,5.9,26-4.9,34.1c-4.2,3.2-9.3,4.9-14.6,4.9l-121.8,0c-13.4,0-24.4-10.9-24.4-24.4c0-5.3,1.7-10.4,4.9-14.6l60.9-81.2
						c8.1-10.8,23.3-12.9,34.1-4.9C209.1-190.7,210.7-189,212.1-187.2z"/>
				</g>
			</g>
		</g>
	</g>
</g>
</svg>
